<?xml version="1.0" encoding="UTF-8"?>
<svg version="1.1" xmlns="http://www.w3.org/2000/svg" viewBox = "0 0 960 512" width="100%" height="100%">
<path d="M0 0 C0.75871336 -0.00282738 1.51742672 -0.00565475 2.29913139 -0.00856781 C6.32483107 -0.0233931 10.35049655 -0.03272367 14.3762207 -0.03710938 C17.6168972 -0.04146068 20.85730247 -0.05524651 24.09790039 -0.078125 C77.03275823 -0.44386892 140.96628745 1.64811296 184.21484375 36.203125 C184.83359375 36.65816406 185.45234375 37.11320312 186.08984375 37.58203125 C190.77574022 41.21577041 194.16171481 45.79943969 197.66430664 50.53393555 C202.4337447 57.08189993 202.4337447 57.08189993 209.21484375 61.203125 C214.69186125 61.9921091 219.54921328 61.76235238 224.28515625 58.65234375 C225.7533404 57.54971962 227.20333128 56.42282375 228.64453125 55.28515625 C292.46934096 5.33914865 397.72974223 8.3957153 474.52734375 10.640625 C475.2118158 10.6601825 475.89628784 10.67973999 476.60150146 10.69989014 C507.5178292 11.60746554 507.5178292 11.60746554 521.21484375 23.203125 C522.26299807 24.08726657 523.31117602 24.97138012 524.359375 25.85546875 C526.0171197 27.25615653 527.6733718 28.65850712 529.32666016 30.06445312 C532.75898822 32.98258604 536.22015241 35.85955519 539.71484375 38.703125 C544.31937955 42.45100298 548.85503566 46.27295944 553.37890625 50.1171875 C557.67358064 53.76053686 562.02545329 57.32895609 566.39453125 60.8828125 C570.13440956 63.9596653 573.81835883 67.10039315 577.49975586 70.24682617 C580.68182182 72.95280114 583.92420509 75.52141841 587.27734375 78.015625 C592.08191872 81.72704897 594.78659582 84.99051068 595.96484375 91.078125 C596.08859375 92.625 596.08859375 92.625 596.21484375 94.203125 C597.39046875 94.285625 598.56609375 94.368125 599.77734375 94.453125 C607.2936186 95.44559087 611.68655167 99.31361005 616.63671875 104.71484375 C621.23493573 111.96500271 622.28956018 120.99261699 623.80151367 129.29052734 C624.04569187 130.60419298 624.29044121 131.91775255 624.53570747 133.23121548 C625.06549229 136.07531509 625.59117803 138.92013118 626.11370277 141.7655735 C626.96582449 146.40575576 627.82712097 151.04421008 628.68925476 155.68254089 C630.10674806 163.31503869 631.51774919 170.94872209 632.92642206 178.58285218 C635.76497452 193.96453986 638.61682837 209.3437695 641.46749878 224.7232151 C642.17010874 228.51400656 642.87230892 232.3048736 643.57418823 236.0958004 C648.53194521 262.87077156 653.5480354 289.63417697 658.61845237 316.38804054 C659.9331418 323.32515895 661.24542179 330.26272915 662.55601501 337.20062256 C662.73900963 338.16924665 662.92200424 339.13787075 663.11054415 340.13584709 C663.84355972 344.01598263 664.57652494 347.89612765 665.30924737 351.77631855 C667.45682533 363.14830314 669.61288725 374.51860219 671.78253776 385.88639683 C673.14713393 393.04041836 674.50109498 400.19640311 675.84706563 407.35395199 C676.62442568 411.48566789 677.40656599 415.61632424 678.20191002 419.74461937 C678.93319622 423.54063325 679.65068911 427.33900238 680.35796893 431.13955998 C680.7347296 433.14491369 681.12576387 435.1475701 681.51753521 437.15004539 C686.09046012 462.01187894 686.09046012 462.01187894 679.7734375 471.37109375 C673.41896732 478.84038325 667.17958994 481.62820458 657.41763669 482.43402666 C656.44771824 482.48420476 655.47779979 482.53438286 654.47848988 482.5860815 C652.78826591 482.67604457 652.78826591 482.67604457 651.063896 482.76782507 C649.83599101 482.82969411 648.60808603 482.89156315 647.3429718 482.95530701 C646.03070262 483.02417069 644.71843343 483.09303437 643.36639851 483.16398484 C639.73003824 483.3547415 636.09347104 483.54125916 632.45685685 483.72710335 C628.53224898 483.92842951 624.6078494 484.13373993 620.6834259 484.33862305 C613.88358652 484.69313881 607.08362921 485.04531418 600.28359413 485.39605522 C590.43985065 485.90391699 580.59637875 486.41689743 570.75298037 486.93140007 C554.76650002 487.76698734 538.77991587 488.60056777 522.79321289 489.43188477 C521.83651336 489.48163509 520.87981383 489.53138542 519.8941234 489.58264334 C506.32378119 490.28822815 492.75332776 490.99165014 479.18282577 491.69415433 C478.22764219 491.74360147 477.27245861 491.7930486 476.28833008 491.84399414 C475.33431328 491.89337954 474.38029648 491.94276493 473.39737008 491.99364685 C457.47611195 492.81796444 441.55514517 493.64776381 425.63440675 494.48205811 C415.81954945 494.99616752 406.0044752 495.5056871 396.18907198 496.00926805 C389.45899792 496.35491898 382.72920451 496.70571591 375.99960694 497.06052189 C372.11999234 497.26490025 368.24029425 497.46697691 364.36023712 497.6627903 C360.80243038 497.84238516 357.24503343 498.02862298 353.68783953 498.21996189 C351.80364127 498.31962178 349.91907818 498.41231051 348.03450853 498.50468153 C333.73137117 499.07282645 333.73137117 499.07282645 321.21484375 505.203125 C319.66070779 506.27782213 318.0975838 507.33959755 316.52734375 508.390625 C315.78097656 508.89980469 315.03460937 509.40898437 314.265625 509.93359375 C309.998385 512.57521851 305.89551949 512.3514252 301.0493927 512.35029602 C300.20717861 512.35397271 299.36496453 512.3576494 298.4972288 512.3614375 C295.66456894 512.37248332 292.83194576 512.37631971 289.99926758 512.38012695 C287.97242109 512.38639094 285.94557576 512.39303768 283.91873169 512.40003967 C278.40408924 512.41745567 272.88945547 512.42800316 267.37479234 512.4362452 C263.92987495 512.44139429 260.48496027 512.44747008 257.04004478 512.45375633 C246.26307706 512.47281044 235.48611621 512.48704089 224.70913488 512.4953683 C212.26652311 512.50514128 199.82408921 512.53146157 187.38154012 512.57186919 C177.76614601 512.60202452 168.1508029 512.61683664 158.53536242 512.62014931 C152.79167621 512.62250052 147.04817997 512.63147031 141.30454445 512.65661049 C135.89957825 512.67988575 130.49492718 512.6841265 125.08992386 512.67384911 C123.10821294 512.6733535 121.12648654 512.67968118 119.14482307 512.69340515 C116.43457642 512.71112175 113.72546097 512.70401912 111.01521301 512.69087219 C109.8450972 512.70732606 109.8450972 512.70732606 108.65134269 512.72411233 C101.0789529 512.63572405 95.57004542 509.33394076 89.46484375 505.078125 C84.64787635 501.73397138 81.49972853 499.95406474 75.51597309 499.9469986 C74.34662167 499.9407665 73.17727025 499.93453441 71.97248393 499.92811346 C70.6868067 499.93141243 69.40112946 499.93471141 68.07649231 499.93811035 C66.69764372 499.93454029 65.31879718 499.93008998 63.93995398 499.92483377 C60.14681573 499.91289355 56.35376369 499.91335409 52.56061113 499.91576886 C48.47115857 499.91618776 44.38173595 499.90509558 40.29229736 499.89530945 C33.20365564 499.8798418 26.11503385 499.87144203 19.02637672 499.86759949 C8.76752597 499.86185443 -1.49127118 499.84327103 -11.75009827 499.82115895 C-28.40671365 499.7854221 -45.06333207 499.7571176 -61.7199707 499.73486328 C-63.21582043 499.73286079 -63.21582043 499.73286079 -64.74188934 499.73081785 C-71.81881139 499.72139218 -78.89573378 499.71223015 -85.97265625 499.703125 C-94.04793319 499.69273198 -102.12320995 499.68221351 -110.19848633 499.67138672 C-111.19299032 499.67005598 -112.18749432 499.66872523 -113.2121348 499.66735417 C-129.79977233 499.64491685 -146.38738705 499.61471636 -162.97500116 499.57899427 C-173.20610362 499.55733887 -183.43717058 499.54271131 -193.66829471 499.53715551 C-200.68173955 499.53290504 -207.69515059 499.52165859 -214.7085767 499.50493157 C-218.75419399 499.495536 -222.79974811 499.48940882 -226.84537697 499.49199486 C-230.55213854 499.49431346 -234.25876761 499.48744514 -237.9655023 499.47341603 C-239.93502208 499.46833784 -241.90455967 499.47303864 -243.87407941 499.47813654 C-254.51205746 499.42206631 -262.71858975 498.59290474 -270.78515625 491.203125 C-276.86755344 484.64053856 -277.22661379 478.51273656 -277.04407692 469.86816978 C-276.67540785 461.29323923 -275.11109295 452.85525939 -273.69018555 444.40551758 C-273.35505375 442.35468889 -273.02105049 440.30367552 -272.68807411 438.25249577 C-271.78272643 432.69536315 -270.86175509 427.14092208 -269.93798852 421.58682585 C-268.95712157 415.67197762 -267.99114441 409.7546973 -267.02348328 403.837677 C-265.16242902 392.47159602 -263.28844455 381.10768626 -261.40985674 369.74449158 C-259.04513679 355.43698625 -256.69657177 341.12683734 -254.34814453 326.81665039 C-253.49927433 321.64522726 -252.65025729 316.47382825 -251.80114746 311.30244446 C-251.59213924 310.02947555 -251.38313102 308.75650664 -251.16778922 307.44496292 C-249.69857011 298.4984027 -248.22667009 289.55228602 -246.75354004 280.60636902 C-242.31386441 253.64202493 -237.89697681 226.67439992 -233.5573113 199.69376874 C-233.09361816 196.81150557 -232.62933735 193.9293372 -232.1650601 191.04716808 C-230.44479744 180.36724794 -228.72552757 169.68717186 -227.02059937 159.00479126 C-226.15354792 153.57237384 -225.2806615 148.14092812 -224.40308571 142.71020126 C-224.09786632 140.81369187 -223.79500991 138.91680014 -223.49490929 137.01947403 C-219.18615398 109.78258294 -219.18615398 109.78258294 -209.78515625 102.203125 C-203.96153125 99.10331887 -198.35536149 97.61910676 -191.78515625 98.203125 C-191.71039063 97.64625 -191.635625 97.089375 -191.55859375 96.515625 C-191.42710937 95.7525 -191.295625 94.989375 -191.16015625 94.203125 C-190.98613281 93.089375 -190.98613281 93.089375 -190.80859375 91.953125 C-187.60097157 83.33417075 -181.25028609 79.096855 -173.53515625 74.703125 C-171.46028049 73.48158404 -169.38608695 72.25888371 -167.3125 71.03515625 C-166.23726074 70.40689941 -165.16202148 69.77864258 -164.05419922 69.13134766 C-158.68576023 65.9648106 -153.39574114 62.67302446 -148.09765625 59.390625 C-136.03709821 51.95275369 -123.92849102 44.59566936 -111.81106567 37.2510376 C-106.19410958 33.84604955 -100.58276487 30.43187953 -94.97265625 27.015625 C-94.05605225 26.4575415 -93.13944824 25.89945801 -92.19506836 25.32446289 C-89.39168285 23.61748401 -86.58840869 21.91032241 -83.78515625 20.203125 C-79.57695084 17.64041485 -75.36858988 15.07796035 -71.16015625 12.515625 C-70.19360107 11.92692627 -69.2270459 11.33822754 -68.23120117 10.73168945 C-67.32861572 10.182146 -66.42603027 9.63260254 -65.49609375 9.06640625 C-64.70509277 8.58469971 -63.9140918 8.10299316 -63.09912109 7.60668945 C-62.3355127 7.14351318 -61.5719043 6.68033691 -60.78515625 6.203125 C-59.9547583 5.66341064 -59.12436035 5.12369629 -58.26879883 4.56762695 C-55.75975063 3.18916727 -54.15775859 2.74345133 -51.3359375 2.5078125 C-50.06073242 2.39373047 -50.06073242 2.39373047 -48.75976562 2.27734375 C-47.88126953 2.21160156 -47.00277344 2.14585937 -46.09765625 2.078125 C-44.85532227 1.96791016 -44.85532227 1.96791016 -43.58789062 1.85546875 C-29.0735598 0.62525781 -14.56176695 0.03796127 0 0 Z " fill="#E6E6E6" transform="translate(276.78515625,-0.203125)"/>
<path d="M0 0 C1.98628976 -0.01330959 3.97252244 -0.03439412 5.95874405 -0.05555725 C9.7378435 -0.09161242 13.51600868 -0.09934897 17.29526138 -0.09938049 C18.42031586 -0.11365082 19.54537033 -0.12792114 20.70451736 -0.1426239 C33.59574814 -0.07046802 43.96635974 3.28236902 53.27963638 12.17405701 C61.89544475 21.18975522 63.07671344 31.38453114 63.89194107 43.41282654 C64.0078061 44.94211709 64.12523302 46.47128994 64.24406433 48.00035286 C64.50087794 51.33695601 64.74834426 54.67408135 64.98933792 58.01186371 C65.38998141 63.53265209 65.82344169 69.05061359 66.26169205 74.56852722 C67.26411474 87.22458254 68.23804979 99.88276582 69.20932388 112.54124451 C69.38609437 114.84276063 69.56288032 117.14427556 69.73968124 119.44578934 C70.56735574 130.22304866 71.39346949 141.00042622 72.21764112 151.77795398 C73.16427561 164.15608001 74.11662339 176.53375024 75.07354665 188.91108501 C75.81809222 198.54624269 76.55740911 208.18179279 77.2927711 217.81765568 C77.73030627 223.54921925 78.1701061 229.28058762 78.61548996 235.01154709 C79.03189979 240.37124767 79.44184773 245.73140299 79.84676361 251.0919838 C79.99635846 253.05741795 80.14830904 255.02267441 80.30277252 256.98773193 C80.51292825 259.66584773 80.71463915 262.34447009 80.9142189 265.02339172 C80.97734056 265.80205247 81.04046221 266.58071321 81.10549664 267.38296974 C81.66734793 275.17720462 80.37599454 278.91733769 75.44369888 284.86155701 C74.43520566 286.10970522 73.42740791 287.35841563 72.42026138 288.60765076 C71.65504166 289.54906921 71.65504166 289.54906921 70.87436295 290.50950623 C68.64194592 293.27849176 66.47830979 296.09816024 64.31869888 298.92405701 C63.48935751 300.00485195 62.65993054 301.08558121 61.83041763 302.16624451 C61.0139835 303.2313273 60.19757687 304.29643117 59.38119888 305.36155701 C53.80324684 312.63232037 48.20114973 319.8829368 42.56869888 327.11155701 C37.97653894 333.00590632 33.41211562 338.92000656 28.88119888 344.86155701 C23.76855252 351.56594998 18.60713465 358.23086332 13.42490005 364.88157654 C4.87595112 375.43338502 4.87595112 375.43338502 -2.96389389 386.48252869 C-4.61880112 388.36155701 -4.61880112 388.36155701 -6.68020248 388.92955017 C-7.473983 388.96189758 -8.26776352 388.994245 -9.08559799 389.02757263 C-9.99470932 389.07458313 -10.90382065 389.12159363 -11.8404808 389.17002869 C-13.32403061 389.21842896 -13.32403061 389.21842896 -14.83755112 389.26780701 C-15.87105698 389.31779846 -16.90456284 389.36778992 -17.96938705 389.41929626 C-20.19388367 389.52609003 -22.41877593 389.62487988 -24.6439476 389.71653748 C-30.47120993 389.95973243 -36.29482503 390.26922447 -42.11880112 390.58030701 C-43.85849167 390.67203186 -43.85849167 390.67203186 -45.63332748 390.76560974 C-60.71374029 391.59378805 -75.65905656 393.32567878 -90.61880112 395.36155701 C-91.58495346 395.49030212 -92.5511058 395.61904724 -93.54653549 395.75169373 C-113.95024828 398.52468154 -133.94493637 403.34159001 -153.61880112 409.36155701 C-154.37967026 409.58923767 -155.1405394 409.81691833 -155.92446518 410.05149841 C-172.75012526 415.12421053 -188.84221538 422.12625708 -203.75649643 431.43870544 C-211.56466851 436.27527505 -216.331531 437.36155701 -225.61880112 437.36155701 C-225.61880112 308.00155701 -225.61880112 178.64155701 -225.61880112 45.36155701 C-221.98880112 44.70155701 -218.35880112 44.04155701 -214.61880112 43.36155701 C-210.83307225 41.46869257 -207.26396215 39.49264155 -203.61880112 37.36155701 C-159.79663044 12.87423387 -111.11710509 6.75658564 -61.82113266 2.55296326 C-59.81164757 2.37831743 -57.80328073 2.19092452 -55.79507065 2.00218201 C-37.22883023 0.26957354 -18.63422383 0.10246503 0 0 Z " fill="#FEFEFE" transform="translate(718.6188011169434,29.638442993164063)"/>
<path d="M0 0 C0.87781631 -0.00511093 1.75563263 -0.01022186 2.66004944 -0.01548767 C5.55729054 -0.02935664 8.45429213 -0.02842497 11.3515625 -0.02612305 C13.39721767 -0.03001926 15.44287203 -0.0343558 17.48852539 -0.03910828 C21.78908901 -0.04657052 26.08957062 -0.04628485 30.39013672 -0.04101562 C34.73822499 -0.03642963 39.08603066 -0.04312431 43.43408203 -0.06152344 C68.1418301 -0.16519965 92.44260293 0.102767 116.9765625 3.2746582 C118.6838385 3.48146219 120.39118784 3.68766222 122.09863281 3.89306641 C126.11036948 4.39187723 130.10600659 4.97076679 134.1015625 5.5871582 C134.77195557 5.68871216 135.44234863 5.79026611 136.13305664 5.89489746 C167.37755039 10.67564609 167.37755039 10.67564609 171.9765625 15.2746582 C172.07085592 17.45271539 172.09398788 19.633871 172.09008789 21.81396484 C172.09023392 22.49686081 172.09037994 23.17975677 172.0905304 23.88334656 C172.08983126 26.15053435 172.0820389 28.41764094 172.07421875 30.68481445 C172.07235457 32.25280207 172.07093067 33.82079028 172.06993103 35.38877869 C172.06610584 39.52342323 172.05627556 43.65803286 172.04522705 47.79266357 C172.03501294 52.00866219 172.03043341 56.22466642 172.02539062 60.44067383 C172.01465329 68.71868467 171.99757686 76.9966671 171.9765625 85.2746582 C170.55264393 84.80955187 169.12954457 84.34193716 167.70678711 83.87329102 C166.91421005 83.61316223 166.121633 83.35303345 165.30503845 83.08502197 C162.62031014 82.1506741 160.05534779 81.03789999 157.46313477 79.87719727 C140.06891923 72.16997729 120.85132043 67.51920031 101.9765625 65.2746582 C101.22415283 65.1818457 100.47174316 65.0890332 99.6965332 64.9934082 C90.50224858 64.00373028 81.27590158 64.03208235 72.0390625 64.0246582 C71.1693985 64.02365112 70.2997345 64.02264404 69.40371704 64.02160645 C56.67618631 64.03157859 44.44645076 64.54137665 31.9765625 67.2746582 C30.35435736 67.60372466 28.73195547 67.93182243 27.109375 68.2590332 C19.56730685 69.82347061 12.21157798 71.59502284 4.9765625 74.2746582 C4.9765625 75.9246582 4.9765625 77.5746582 4.9765625 79.2746582 C10.02819313 78.86228019 14.60259666 77.8602024 19.4765625 76.4621582 C50.01638676 68.16396353 82.85906922 67.58395907 113.9765625 73.2746582 C114.70359375 73.40324219 115.430625 73.53182617 116.1796875 73.66430664 C125.90427912 75.46024861 135.27249834 78.53517269 144.6640625 81.5871582 C145.76854736 81.94181152 146.87303223 82.29646484 148.01098633 82.66186523 C156.60147043 85.53704767 163.68356398 89.12815894 171.9765625 93.2746582 C171.9765625 105.8146582 171.9765625 118.3546582 171.9765625 131.2746582 C161.92592284 127.92444498 161.92592284 127.92444498 157.41015625 126.15356445 C146.06116656 121.75873714 134.95025233 117.61704928 122.9765625 115.2746582 C122.09081543 115.10095703 121.20506836 114.92725586 120.29248047 114.74829102 C117.3152126 114.17648794 114.33487253 113.62652052 111.3515625 113.0871582 C110.43366943 112.91982178 109.51577637 112.75248535 108.57006836 112.58007812 C74.06174734 106.6560733 38.26401603 109.99017204 4.9765625 120.2746582 C4.9765625 121.9246582 4.9765625 123.5746582 4.9765625 125.2746582 C12.91156832 124.34044967 20.63277048 122.35500228 28.40234375 120.53442383 C42.15864664 117.39524486 55.53623548 115.9362176 69.61010742 116.01391602 C71.90896049 116.02463442 74.20702974 116.01394711 76.50585938 116.0012207 C86.48866414 115.99162698 96.10098654 116.7988322 105.9765625 118.2746582 C106.87914795 118.399375 107.7817334 118.5240918 108.71166992 118.65258789 C141.27833183 123.34288605 183.10376834 137.40186404 206.9765625 161.2746582 C208.64273365 161.31529652 210.31044345 161.3173792 211.9765625 161.2746582 C211.67846337 158.08288285 211.40048479 156.65850358 208.98291016 154.46948242 C208.12745605 153.9282373 207.27200195 153.38699219 206.390625 152.8293457 C205.45992187 152.22735352 204.52921875 151.62536133 203.5703125 151.00512695 C202.590625 150.39282227 201.6109375 149.78051758 200.6015625 149.1496582 C198.67522857 147.92079001 196.75067171 146.68913054 194.828125 145.4543457 C193.97041504 144.91535645 193.11270508 144.37636719 192.22900391 143.82104492 C189.9765625 142.2746582 189.9765625 142.2746582 186.9765625 139.2746582 C189.6165625 138.2846582 192.2565625 137.2946582 194.9765625 136.2746582 C195.3065625 127.0346582 195.6365625 117.7946582 195.9765625 108.2746582 C199.73594384 109.77841074 201.55596591 110.54389397 204.4765625 112.8996582 C206.92354204 114.72552259 207.78136832 115.25389286 210.9140625 115.5871582 C211.5946875 115.4840332 212.2753125 115.3809082 212.9765625 115.2746582 C212.3396578 112.62068353 211.65218433 110.7819926 209.42887688 109.11247826 C208.13506528 108.34213426 206.83836976 107.57662023 205.53934574 106.81509876 C197.09464486 101.73751017 197.09464486 101.73751017 195.1226387 97.39368057 C193.88709122 92.25057558 194.25031572 87.03434151 194.51171875 81.79418945 C194.53975248 80.12849047 194.56107765 78.46266643 194.57603455 76.79679871 C194.63288685 72.44502604 194.77977355 68.100957 194.94659424 63.75219727 C195.10101005 59.30176037 195.16874825 54.85005758 195.24414062 50.39770508 C195.40425411 41.68651527 195.65966347 32.9815488 195.9765625 24.2746582 C197.24746238 24.89703907 198.51686644 25.52247493 199.78564453 26.14916992 C200.49270538 26.49712616 201.19976624 26.8450824 201.92825317 27.20358276 C209.23217358 31.02285442 215.52448004 36.64712705 221.2265625 42.5246582 C227.73822706 49.23396115 233.13855035 51.96040365 241.9765625 55.2746582 C241.9765625 184.6346582 241.9765625 313.9946582 241.9765625 447.2746582 C232.14040513 445.08884545 226.10466059 442.33650318 218.8515625 435.5246582 C192.34956647 411.1186021 152.10986133 400.85422538 117.9765625 393.2746582 C116.72262695 392.99259521 116.72262695 392.99259521 115.44335938 392.70483398 C79.82944407 384.84882326 42.33964138 381.76014823 5.93359375 381.01293945 C5.13285431 380.99566803 4.33211487 380.97839661 3.5071106 380.96060181 C-0.2455114 380.884501 -3.99562964 380.833367 -7.74902344 380.82836914 C-20.69691246 380.72230151 -30.26422004 377.60180787 -39.70703125 368.68481445 C-46.68574131 361.28842599 -49.21120522 351.89903104 -48.9597168 341.99658203 C-48.91886963 340.76834717 -48.87802246 339.5401123 -48.8359375 338.2746582 C-48.81487946 337.62065033 -48.79382141 336.96664246 -48.77212524 336.29281616 C-48.19155783 318.99241543 -46.88715251 301.73306992 -45.67700195 284.46801758 C-44.37265518 265.79800748 -43.21981711 247.12322067 -42.14770508 228.43852997 C-40.87782694 206.32613762 -39.52402705 184.22340174 -37.9776001 162.12826538 C-36.73966517 144.41516608 -35.60610207 126.69719324 -34.51780891 108.97430229 C-34.28503111 105.18668446 -34.05129428 101.39912701 -33.81724548 97.61158752 C-33.6598118 95.06283623 -33.50238691 92.5140844 -33.3449707 89.96533203 C-33.2665906 88.69652474 -33.18821051 87.42771746 -33.10745525 86.12046146 C-32.63566021 78.47102887 -32.17071135 70.82121468 -31.71029758 63.17108917 C-31.41845474 58.34760467 -31.12043495 53.52451526 -30.82088661 48.70150375 C-30.68105536 46.42825387 -30.54388235 44.15483876 -30.40950584 41.88125992 C-30.22309329 38.73238463 -30.0274091 35.58421152 -29.82958984 32.43603516 C-29.77760028 31.51942203 -29.72561071 30.6028089 -29.67204571 29.65841961 C-28.95977745 18.69782903 -26.4397337 11.08546253 -18.09765625 3.5715332 C-12.48568738 0.06273157 -6.41052839 -0.01949971 0 0 Z " fill="#FEFEFE" transform="translate(247.0234375,19.725341796875)"/>
<path d="M0 0 C9.16810839 0.64337603 14.30483541 3.83728537 20.421875 10.51171875 C25.02009198 17.76187771 26.07471643 26.78949199 27.58666992 35.08740234 C27.83084812 36.40106798 28.07559746 37.71462755 28.32086372 39.02809048 C28.85064854 41.87219009 29.37633428 44.71700618 29.89885902 47.5624485 C30.75098074 52.20263076 31.61227722 56.84108508 32.47441101 61.47941589 C33.89190431 69.11191369 35.30290544 76.74559709 36.71157831 84.37972718 C39.55013077 99.76141486 42.40198462 115.1406445 45.25265503 130.5200901 C45.95526499 134.31088156 46.65746517 138.1017486 47.35934448 141.8926754 C52.31710146 168.66764656 57.33319165 195.43105197 62.40360862 222.18491554 C63.71829805 229.12203395 65.03057804 236.05960415 66.34117126 242.99749756 C66.61566318 244.4504337 66.61566318 244.4504337 66.8957004 245.93272209 C67.62871597 249.81285763 68.36168119 253.69300265 69.09440362 257.57319355 C71.24198158 268.94517814 73.3980435 280.31547719 75.56769401 291.68327183 C76.93229018 298.83729336 78.28625123 305.99327811 79.63222188 313.15082699 C80.40958193 317.28254289 81.19172224 321.41319924 81.98706627 325.54149437 C82.71835247 329.33750825 83.43584536 333.13587738 84.14312518 336.93643498 C84.51988585 338.94178869 84.91092012 340.9444451 85.30269146 342.94692039 C89.87561637 367.80875394 89.87561637 367.80875394 83.55859375 377.16796875 C77.20412357 384.63725825 70.96474619 387.42507958 61.20279294 388.23090166 C60.23287449 388.28107976 59.26295604 388.33125786 58.26364613 388.3829565 C56.57342216 388.47291957 56.57342216 388.47291957 54.84905225 388.56470007 C53.62114726 388.62656911 52.39324228 388.68843815 51.12812805 388.75218201 C49.81585887 388.82104569 48.50358968 388.88990937 47.15155476 388.96085984 C43.51519449 389.1516165 39.87862729 389.33813416 36.2420131 389.52397835 C32.31740523 389.72530451 28.39300565 389.93061493 24.46858215 390.13549805 C17.66874277 390.49001381 10.86878546 390.84218918 4.06875038 391.19293022 C-5.7749931 391.70079199 -15.618465 392.21377243 -25.46186338 392.72827507 C-41.44834373 393.56386234 -57.43492788 394.39744277 -73.42163086 395.22875977 C-74.37833039 395.27851009 -75.33502992 395.32826042 -76.32072035 395.37951834 C-89.89106256 396.08510315 -103.46151599 396.78852514 -117.03201798 397.49102933 C-117.98720156 397.54047647 -118.94238514 397.5899236 -119.92651367 397.64086914 C-120.88053047 397.69025454 -121.83454727 397.73963993 -122.81747367 397.79052185 C-138.7387318 398.61483944 -154.65969858 399.44463881 -170.580437 400.27893311 C-180.3952943 400.79304252 -190.21036855 401.3025621 -200.02577177 401.80614305 C-206.75584583 402.15179398 -213.48563924 402.50259091 -220.21523681 402.85739689 C-224.09485141 403.06177525 -227.9745495 403.26385191 -231.85460663 403.4596653 C-235.41241337 403.63926016 -238.96981032 403.82549798 -242.52700422 404.01683689 C-244.41120248 404.11649678 -246.29576557 404.20918551 -248.18033522 404.30155653 C-262.48347258 404.86970145 -262.48347258 404.86970145 -275 411 C-276.55413596 412.07469713 -278.11725995 413.13647255 -279.6875 414.1875 C-280.43386719 414.69667969 -281.18023438 415.20585937 -281.94921875 415.73046875 C-286.21645875 418.37209351 -290.31932426 418.1483002 -295.16545105 418.14717102 C-296.00766514 418.15084771 -296.84987922 418.1545244 -297.71761495 418.1583125 C-300.55027481 418.16935832 -303.38289799 418.17319471 -306.21557617 418.17700195 C-308.24242266 418.18326594 -310.26926799 418.18991268 -312.29611206 418.19691467 C-317.81075451 418.21433067 -323.32538828 418.22487816 -328.84005141 418.2331202 C-332.2849688 418.23826929 -335.72988348 418.24434508 -339.17479897 418.25063133 C-349.95176669 418.26968544 -360.72872754 418.28391589 -371.50570887 418.2922433 C-383.94832064 418.30201628 -396.39075454 418.32833657 -408.83330363 418.36874419 C-418.44869774 418.39889952 -428.06404085 418.41371164 -437.67948133 418.41702431 C-443.42316754 418.41937552 -449.16666378 418.42834531 -454.9102993 418.45348549 C-460.3152655 418.47676075 -465.71991657 418.4810015 -471.12491989 418.47072411 C-473.10663081 418.4702285 -475.08835721 418.47655618 -477.07002068 418.49028015 C-479.78026733 418.50799675 -482.48938278 418.50089412 -485.19963074 418.48774719 C-486.36974655 418.50420106 -486.36974655 418.50420106 -487.56350106 418.52098733 C-495.13589085 418.43259905 -500.64479833 415.13081576 -506.75 410.875 C-511.5669674 407.53084638 -514.71511522 405.75093974 -520.69887066 405.7438736 C-521.86822208 405.7376415 -523.0375735 405.73140941 -524.24235982 405.72498846 C-525.52803705 405.72828743 -526.81371429 405.73158641 -528.13835144 405.73498535 C-529.51720003 405.73141529 -530.89604657 405.72696498 -532.27488977 405.72170877 C-536.06802802 405.70976855 -539.86108006 405.71022909 -543.65423262 405.71264386 C-547.74368518 405.71306276 -551.8331078 405.70197058 -555.92254639 405.69218445 C-563.01118811 405.6767168 -570.0998099 405.66831703 -577.18846703 405.66447449 C-587.44731778 405.65872943 -597.70611493 405.64014603 -607.96494202 405.61803395 C-624.6215574 405.5822971 -641.27817582 405.5539926 -657.93481445 405.53173828 C-659.43066418 405.52973579 -659.43066418 405.52973579 -660.95673309 405.52769285 C-668.03365514 405.51826718 -675.11057753 405.50910515 -682.1875 405.5 C-690.26277694 405.48960698 -698.3380537 405.47908851 -706.41333008 405.46826172 C-707.40783407 405.46693098 -708.40233807 405.46560023 -709.42697855 405.46422917 C-726.01461608 405.44179185 -742.6022308 405.41159136 -759.18984491 405.37586927 C-769.42094737 405.35421387 -779.65201433 405.33958631 -789.88313846 405.33403051 C-796.8965833 405.32978004 -803.90999434 405.31853359 -810.92342045 405.30180657 C-814.96903774 405.292411 -819.01459186 405.28628382 -823.06022072 405.28886986 C-826.76698229 405.29118846 -830.47361136 405.28432014 -834.18034605 405.27029103 C-836.14986583 405.26521284 -838.11940342 405.26991364 -840.08892316 405.27501154 C-850.72690121 405.21894131 -858.9334335 404.38977974 -867 397 C-873.08239719 390.43741356 -873.44145754 384.30961156 -873.25892067 375.66504478 C-872.8902516 367.09011423 -871.3259367 358.65213439 -869.9050293 350.20239258 C-869.5698975 348.15156389 -869.23589424 346.10055052 -868.90291786 344.04937077 C-867.99757018 338.49223815 -867.07659884 332.93779708 -866.15283227 327.38370085 C-865.17196532 321.46885262 -864.20598816 315.5515723 -863.23832703 309.634552 C-861.37727277 298.26847102 -859.5032883 286.90456126 -857.62470049 275.54136658 C-855.25998054 261.23386125 -852.91141552 246.92371234 -850.56298828 232.61352539 C-849.71411808 227.44210226 -848.86510104 222.27070325 -848.01599121 217.09931946 C-847.80698299 215.82635055 -847.59797477 214.55338164 -847.38263297 213.24183792 C-845.91341386 204.2952777 -844.44151384 195.34916102 -842.96838379 186.40324402 C-838.52870816 159.43889993 -834.11182056 132.47127492 -829.77215505 105.49064374 C-829.30846191 102.60838057 -828.8441811 99.7262122 -828.37990385 96.84404308 C-826.65964119 86.16412294 -824.94037132 75.48404686 -823.23544312 64.80166626 C-822.36839167 59.36924884 -821.49550525 53.93780312 -820.61792946 48.50707626 C-820.31271007 46.61056687 -820.00985366 44.71367514 -819.70975304 42.81634903 C-815.40099773 15.57945794 -815.40099773 15.57945794 -806 8 C-800.176375 4.90019387 -794.57020524 3.41598176 -788 4 C-787.84844004 12.37773997 -788.19962663 20.48345595 -789.25 28.79296875 C-789.38358917 29.9048204 -789.51717834 31.01667206 -789.65481567 32.16221619 C-789.94483063 34.57281679 -790.23807625 36.9830305 -790.53424072 39.3928833 C-791.35041158 46.04236023 -792.13985104 52.695011 -792.9296875 59.34765625 C-793.01335445 60.05040428 -793.09702141 60.75315231 -793.18322372 61.47719574 C-794.54832488 72.95534107 -795.83325106 84.4409736 -797.0703125 95.93359375 C-797.15620384 96.73139692 -797.24209518 97.5292001 -797.33058929 98.35117912 C-798.09310967 105.44233605 -798.85055346 112.53403045 -799.60253906 119.62631226 C-801.43276562 136.88777105 -803.35223682 154.13358592 -805.4296875 171.3671875 C-807.21138263 186.15202643 -808.90109512 200.944258 -810.5 215.75 C-810.60302303 216.7035928 -810.70604607 217.65718559 -810.81219101 218.63967514 C-811.54459434 225.42611442 -812.27278122 232.21300347 -813 239 C-813.83043707 246.75031351 -814.66271359 254.50042313 -815.5 262.25 C-815.60206568 263.19492498 -815.70413136 264.13984997 -815.80928993 265.11340904 C-817.62729247 281.90534722 -819.58837227 298.67843585 -821.61478138 315.44639587 C-828.42097772 347.78512878 -828.42097772 347.78512878 -822.4296875 377.48828125 C-818.77407066 381.3536466 -814.89134232 384.71321684 -809.46582335 385.25135702 C-808.02022401 385.25233517 -808.02022401 385.25233517 -806.54542065 385.25333309 C-805.43057016 385.25894849 -804.31571967 385.26456388 -803.16708583 385.27034944 C-801.32990637 385.2643778 -801.32990637 385.2643778 -799.45561218 385.25828552 C-798.15448024 385.26196123 -796.8533483 385.26563693 -795.51278812 385.26942402 C-791.89820793 385.27941812 -788.28372463 385.27702809 -784.66913712 385.27269709 C-780.7719566 385.27022356 -776.87480172 385.27928574 -772.97763062 385.28707886 C-766.22292836 385.2991312 -759.46824972 385.30423218 -752.71353722 385.30496025 C-742.93969488 385.30628512 -733.1659099 385.32139015 -723.39208779 385.34045542 C-707.52515221 385.37130871 -691.65821517 385.39546848 -675.79125977 385.41333008 C-674.84135183 385.41440276 -673.8914439 385.41547544 -672.91275088 385.41658062 C-662.31642829 385.42839902 -651.72010513 385.4386043 -641.1237793 385.44702148 C-637.28247069 385.45009533 -633.44116209 385.45318413 -629.59985352 385.45629883 C-628.17808921 385.45744684 -628.17808921 385.45744684 -626.72760238 385.45861804 C-610.92419448 385.47169875 -595.12082803 385.49633765 -579.31745082 385.53004223 C-569.56846331 385.55033636 -559.81956446 385.56062105 -550.07055566 385.55805302 C-543.38977008 385.55701807 -536.70905458 385.56665292 -530.02829345 385.58469205 C-526.17326734 385.59473844 -522.31839629 385.59986372 -518.46336174 385.59192467 C-514.28388052 385.5834198 -510.10479487 385.59797317 -505.92533875 385.61473083 C-504.70724461 385.60851902 -503.48915047 385.6023072 -502.23414439 385.59590715 C-493.91492784 385.65684214 -488.37304029 386.79823161 -481.73828125 392.06640625 C-481.01189453 392.63423828 -480.28550781 393.20207031 -479.53710938 393.78710938 C-478.43592773 394.66592773 -478.43592773 394.66592773 -477.3125 395.5625 C-475.83180915 396.73348714 -474.34881429 397.90156812 -472.86328125 399.06640625 C-472.21657471 399.58146729 -471.56986816 400.09652832 -470.90356445 400.62719727 C-466.95305212 403.47620725 -464.03288585 404.26459388 -459.14257812 404.41064453 C-457.34457764 404.47040466 -457.34457764 404.47040466 -455.51025391 404.53137207 C-454.19718262 404.56484741 -452.88411133 404.59832275 -451.53125 404.6328125 C-450.13002779 404.67466111 -448.72882359 404.71711646 -447.32763672 404.76013184 C-442.71878749 404.89722013 -438.10949653 405.01214446 -433.5 405.125 C-431.90649386 405.16508901 -430.312988 405.20518916 -428.71948242 405.24530029 C-417.69488501 405.51884159 -406.66958094 405.74248527 -395.64355469 405.94940186 C-392.99669652 406.00006323 -390.34991026 406.05358179 -387.703125 406.10791016 C-377.29702254 406.31946667 -366.89198051 406.47902622 -356.48413086 406.57220459 C-353.18362489 406.60308253 -349.88421843 406.65251026 -346.58422852 406.71832275 C-322.54432971 407.51824283 -322.54432971 407.51824283 -301 398 C-299.3585293 397.07547605 -297.70755752 396.16737779 -296.04296875 395.28515625 C-294.75538763 394.54849306 -293.47006378 393.80786429 -292.1875 393.0625 C-286.32210166 389.67271993 -282.03174241 387.89704326 -275.19775391 387.53076172 C-274.51449413 387.49291691 -273.83123436 387.4550721 -273.12726974 387.41608047 C-270.86889002 387.29181764 -268.61024529 387.17330277 -266.3515625 387.0546875 C-264.76150161 386.96811909 -263.17146481 386.88110716 -261.58145142 386.79367065 C-258.30882354 386.6140068 -255.03610273 386.4361972 -251.76330566 386.25964355 C-244.80721634 385.88266563 -237.85296711 385.47490972 -230.8984375 385.0703125 C-198.83463602 383.2216634 -166.7663732 381.5036328 -134.6875 379.9375 C-133.8308374 379.89567471 -132.9741748 379.85384941 -132.09155273 379.81075668 C-125.28524212 379.47858747 -118.47890894 379.14688014 -111.6725502 378.81569862 C-93.60434335 377.93635692 -75.53718186 377.03590294 -57.47338867 376.06958008 C-55.20882583 375.94865155 -52.94425879 375.82780145 -50.6796875 375.70703125 C-49.57218643 375.6478804 -48.46468536 375.58872955 -47.32362366 375.52778625 C-40.04148839 375.14443628 -32.75828508 374.80721102 -25.47280884 374.49397278 C-20.37087582 374.27204466 -15.26981587 374.0329868 -10.16876221 373.79177856 C-7.75696827 373.68214062 -5.34479976 373.58040504 -2.93231201 373.48727417 C0.39016013 373.35838491 3.71028251 373.2016909 7.03125 373.0390625 C8.48179276 372.99364571 8.48179276 372.99364571 9.9616394 372.9473114 C17.70637736 372.52332318 24.66283996 370.28590673 30.2890625 364.74609375 C36.54426156 353.93667081 33.85965209 341.84009445 32.62988281 329.88891602 C32.48112206 328.39984082 32.33288252 326.91071348 32.18511581 325.42153931 C31.78254814 321.37981013 31.3726183 317.33885822 30.96132278 313.29800916 C30.52245938 308.97375184 30.09040187 304.64881386 29.6574707 300.32395935 C28.81934318 291.96231314 27.97482477 283.60132455 27.12804174 275.24055094 C26.44415701 268.48638192 25.76306117 261.7319367 25.0838623 254.97729492 C24.98741731 254.01815614 24.89097232 253.05901736 24.79160476 252.07081378 C24.59645875 250.13000225 24.40131657 248.18919033 24.20617819 246.24837804 C19.0377821 194.85588721 13.81056858 143.46927467 8.50537491 92.09072018 C7.44198738 81.79117624 6.38287767 71.49119801 5.32723999 61.19085693 C4.9821462 57.82591088 4.63619944 54.46105301 4.2902832 51.09619141 C3.69330049 45.28345808 3.10100491 39.47026211 2.51177216 33.65673828 C2.28785596 31.45363328 2.06257344 29.25066666 1.83582306 27.04785156 C1.52314187 24.00753359 1.21554465 20.96674129 0.90917969 17.92578125 C0.81650063 17.03550735 0.72382156 16.14523346 0.62833405 15.22798157 C0.12030335 10.12227074 -0.08627277 5.13114505 0 0 Z " fill="#090814" transform="translate(873,94)"/>
<path d="M0 0 C1.78479012 -0.01052147 1.78479012 -0.01052147 3.6056366 -0.02125549 C7.42723409 -0.03867387 11.24867677 -0.04510804 15.0703125 -0.046875 C16.37354462 -0.04754974 17.67677673 -0.04822449 19.01950073 -0.04891968 C37.90438583 -0.03335789 56.51316035 0.16989264 75.1953125 3.203125 C76.32066406 3.38536621 77.44601562 3.56760742 78.60546875 3.75537109 C114.20587869 9.76068264 114.20587869 9.76068264 124.1953125 21.203125 C124.1953125 21.863125 124.1953125 22.523125 124.1953125 23.203125 C124.8553125 23.203125 125.5153125 23.203125 126.1953125 23.203125 C126.1953125 54.553125 126.1953125 85.903125 126.1953125 118.203125 C122.16038029 117.39613856 120.05416374 116.74611684 116.5703125 114.953125 C66.66249989 91.77446304 -18.32607301 93.76620664 -69.34765625 111.4296875 C-73.55744529 113.13452132 -77.53682975 115.02481223 -81.47192383 117.28710938 C-82.57173584 117.91939453 -83.67154785 118.55167969 -84.8046875 119.203125 C-84.89739124 106.78996808 -84.96845467 94.37689359 -85.01193619 81.96346092 C-85.03280577 76.19931175 -85.06111245 70.43539953 -85.10644531 64.67138672 C-85.14992472 59.10818784 -85.17382934 53.5452168 -85.18419647 47.98186111 C-85.19158402 45.85997557 -85.20601016 43.73810242 -85.22760773 41.61631393 C-85.25666905 38.64286152 -85.26064229 35.67034906 -85.25878906 32.69677734 C-85.27317017 31.8206781 -85.28755127 30.94457886 -85.30236816 30.04193115 C-85.26567877 24.59718511 -84.41408139 21.53104555 -80.8046875 17.203125 C-62.02411109 -0.03010182 -23.96374844 0.09476729 0 0 Z " fill="#112F71" transform="translate(621.8046875,199.796875)"/>
<path d="M0 0 C6.27301924 1.88190577 11.74262344 3.59233387 17.625 6.1875 C18.24761719 6.46013672 18.87023437 6.73277344 19.51171875 7.01367188 C21.01007562 7.67064373 22.50539581 8.33453502 24 9 C23.98143951 10.16796112 23.96287903 11.33592224 23.9437561 12.53927612 C23.77761663 23.57335833 23.68579556 34.60592146 23.66578102 45.64126396 C23.65312859 51.31439794 23.61476602 56.98487669 23.51660156 62.65722656 C23.42273179 68.13706704 23.39776482 73.61337883 23.41953659 79.09393692 C23.41591083 81.179176 23.38790951 83.2645265 23.33458328 85.34908676 C22.6700968 96.1426458 22.6700968 96.1426458 26.41783905 105.86386871 C30.17463954 109.40213245 34.42223358 111.6870118 39 114 C41 116 41 116 41 120 C38.89453125 120.74609375 38.89453125 120.74609375 36 121 C32.88671875 119.34765625 32.88671875 119.34765625 29.6875 117.0625 C28.61886719 116.31097656 27.55023438 115.55945313 26.44921875 114.78515625 C25.64097656 114.19605469 24.83273437 113.60695313 24 113 C24.02618408 113.83249268 24.05236816 114.66498535 24.0793457 115.52270508 C24.16460955 118.6144369 24.22726752 121.7055695 24.2746582 124.7980957 C24.31214374 126.79353555 24.37567535 128.78843052 24.43945312 130.78320312 C24.45556641 132.03681641 24.47167969 133.29042969 24.48828125 134.58203125 C24.51446533 135.73936768 24.54064941 136.8967041 24.56762695 138.08911133 C24 141 24 141 21.65698242 142.83862305 C19 144 19 144 16 145 C17.05058594 145.64066406 18.10117187 146.28132812 19.18359375 146.94140625 C26.76754939 151.60192756 34.1634464 156.26489114 41 162 C40.67 163.65 40.34 165.3 40 167 C36.69129775 167.37626036 35.26143193 167.1670479 32.4140625 165.34765625 C31.49367188 164.59355469 30.57328125 163.83945313 29.625 163.0625 C-12.71626993 129.67395313 -72.2211369 116.4899917 -125.2109375 122.71875 C-135.86944903 124.24277684 -146.36572907 126.58240877 -156.72460938 129.51245117 C-160.83669743 130.64695628 -163.79913897 131.36948069 -168 130 C-168 128.35 -168 126.7 -168 125 C-126.15624602 105.67885722 -67.74593365 110.43739931 -25.390625 125.95605469 C-16.84285795 129.12266811 -8.3794466 132.4088086 0 136 C-0.33 123.46 -0.66 110.92 -1 98 C-24.02380526 87.62307369 -46.8844801 80.18035054 -72 77 C-72.74878418 76.89905029 -73.49756836 76.79810059 -74.26904297 76.6940918 C-101.90591638 73.40258209 -130.41222302 75.55901182 -157.0300293 83.51245117 C-161.04402595 84.68208959 -163.96351442 85.29772613 -168 84 C-168.1875 81.625 -168.1875 81.625 -168 79 C-163.49179593 75.99453062 -158.49406312 75.21891422 -153.26245117 73.96826172 C-151.36178037 73.5118342 -149.46499338 73.03932803 -147.56835938 72.56640625 C-132.66368166 68.96579463 -118.330216 67.6616214 -103.06420898 67.73925781 C-100.56794887 67.7499766 -98.07241041 67.73928967 -95.57617188 67.7265625 C-74.52689735 67.70818349 -54.13755694 70.84560058 -34 77 C-30.7 77.99 -27.4 78.98 -24 80 C-16.08 83.3 -8.16 86.6 0 90 C0 60.3 0 30.6 0 0 Z " fill="#123072" transform="translate(419,15)"/>
<path d="M0 0 C6.33706592 3.8716098 10.57759276 8.12758907 13.07373047 15.23852539 C14.19109896 19.91925034 13.98770329 24.64164157 13.890625 29.42578125 C13.88546875 30.46154297 13.8803125 31.49730469 13.875 32.56445312 C13.79617287 40.14663764 13.79617287 40.14663764 12.640625 43.61328125 C11.980625 43.61328125 11.320625 43.61328125 10.640625 43.61328125 C10.310625 45.59328125 9.980625 47.57328125 9.640625 49.61328125 C8.980625 49.61328125 8.320625 49.61328125 7.640625 49.61328125 C7.3621875 50.63421875 7.3621875 50.63421875 7.078125 51.67578125 C4.31045062 57.33146369 -0.70363856 61.86620927 -6.359375 64.61328125 C-7.019375 64.61328125 -7.679375 64.61328125 -8.359375 64.61328125 C-8.359375 65.27328125 -8.359375 65.93328125 -8.359375 66.61328125 C-18.89340258 72.72301725 -31.26671976 74.85149196 -43.359375 73.61328125 C-45.37748925 73.00364257 -47.38445525 72.35093729 -49.359375 71.61328125 C-49.029375 70.29328125 -48.699375 68.97328125 -48.359375 67.61328125 C-46.379375 67.61328125 -44.399375 67.61328125 -42.359375 67.61328125 C-42.19501953 66.57494141 -42.19501953 66.57494141 -42.02734375 65.515625 C-40.89117114 58.50460865 -39.56227439 51.55131259 -38.13671875 44.59375 C-37.59589603 41.89498444 -37.11433132 39.19379072 -36.67578125 36.4765625 C-32.3125722 9.56647845 -32.3125722 9.56647845 -28.359375 5.61328125 C-26.69320385 5.57264293 -25.02549405 5.57056025 -23.359375 5.61328125 C-24.01154513 11.59391469 -24.71428917 17.56423603 -25.48046875 23.53125 C-25.58529068 24.35095779 -25.69011261 25.17066559 -25.79811096 26.01521301 C-26.01875497 27.73878764 -26.23978338 29.46231311 -26.46118164 31.18579102 C-26.79378243 33.77669067 -27.12450656 36.36782513 -27.45507812 38.95898438 C-28.67920994 48.52244981 -29.95862429 58.07380468 -31.359375 67.61328125 C-19.75141468 64.56949502 -9.93515796 60.78805111 -3.609375 50.0234375 C-2.990625 48.83041016 -2.990625 48.83041016 -2.359375 47.61328125 C-1.740625 46.46666016 -1.740625 46.46666016 -1.109375 45.296875 C1.68508972 39.09665641 2.04920331 33.06570986 2.140625 26.36328125 C2.15915527 25.51145264 2.17768555 24.65962402 2.19677734 23.78198242 C2.13811217 17.8999365 1.11595628 14.3956262 -2.359375 9.61328125 C-4.52908706 7.61626084 -4.52908706 7.61626084 -6.921875 6.23828125 C-7.68628906 5.75617188 -8.45070313 5.2740625 -9.23828125 4.77734375 C-17.18811043 0.41445407 -30.22642148 1.66926208 -38.734375 4.11328125 C-39.95253906 4.5309375 -39.95253906 4.5309375 -41.1953125 4.95703125 C-43.359375 5.61328125 -43.359375 5.61328125 -47.359375 5.61328125 C-47.08984375 3.71484375 -47.08984375 3.71484375 -46.359375 1.61328125 C-44.72265625 0.63671875 -44.72265625 0.63671875 -42.671875 -0.01171875 C-42.00800781 -0.23085937 -41.34414063 -0.45 -40.66015625 -0.67578125 C-39.90089844 -0.91039062 -39.14164063 -1.145 -38.359375 -1.38671875 C-37.06773437 -1.91072266 -37.06773437 -1.91072266 -35.75 -2.4453125 C-24.64947674 -5.52737022 -10.46029825 -4.8604789 0 0 Z " fill="#EDEEF2" transform="translate(654.359375,217.38671875)"/>
<path d="M0 0 C2.0625 0.4375 2.0625 0.4375 4 1 C7.06409583 43.91377641 10.12221664 86.82797492 13.17237449 129.74274436 C13.5328421 134.81433914 13.89335895 139.88593042 14.25390625 144.95751953 C14.325681 145.96714097 14.39745576 146.97676241 14.47140551 148.01697844 C15.63222902 164.34407398 16.79703721 180.6708829 17.96332979 196.99758857 C19.16081676 213.76223262 20.35399431 230.52717939 21.54320908 247.29241228 C22.27658456 257.62943594 23.01328192 267.96621166 23.75429058 278.30269098 C24.26276544 285.40003309 24.76703731 292.4976662 25.26807499 299.59553719 C25.55685225 303.68471867 25.84741369 307.77375161 26.14299011 311.86244774 C26.41435794 315.61684062 26.68036343 319.37157623 26.9423728 323.12663347 C27.08176526 325.10536219 27.22665784 327.08370118 27.37184525 329.06201315 C27.99192977 338.05699344 28.09685206 346.98995372 28 356 C26.68 356 25.36 356 24 356 C23.95210831 355.34346939 23.90421661 354.68693878 23.85487366 354.01051331 C23.35393308 347.14789065 22.85061561 340.28544521 22.34594727 333.4230957 C22.15816872 330.86552279 21.97098655 328.30790602 21.78442383 325.75024414 C21.51542225 322.06384645 21.24424258 318.37761431 20.97265625 314.69140625 C20.89032242 313.55667374 20.80798859 312.42194122 20.72315979 311.25282288 C20.32340883 305.85448675 19.84979189 300.48244686 19.22422791 295.10591125 C18.83379955 291.43907301 18.6319232 287.76288042 18.421875 284.08203125 C18.31446262 282.28522732 18.20686806 280.48843428 18.09912109 278.69165039 C18.0426239 277.73791534 17.98612671 276.7841803 17.92791748 275.80154419 C16.62017386 253.83122703 15.11131718 231.876501 13.54341125 209.92351913 C13.37548527 207.56930323 13.20833593 205.21503331 13.04138184 202.86074829 C12.77541394 199.11277838 12.50739279 195.36496077 12.23771286 191.61725616 C12.13804366 190.22944261 12.0389081 188.84159062 11.94035721 187.4536972 C11.47969083 180.97692254 10.98102127 174.52220541 10.22247314 168.07337952 C9.81272227 164.25463061 9.60844228 160.42331146 9.38671875 156.58984375 C9.2740227 154.72012762 9.1612248 152.85041763 9.04833984 150.98071289 C8.98974792 149.99765167 8.93115601 149.01459045 8.87078857 148.0017395 C7.6651842 127.84630659 6.31222723 107.70265943 4.875 87.5625 C4.78882416 86.34577606 4.70264832 85.12905212 4.61386108 83.87545776 C4.3670967 80.39728443 4.11766341 76.91931407 3.8671875 73.44140625 C3.79437057 72.41520172 3.72155365 71.38899719 3.64653015 70.33169556 C3.33545139 66.05950573 2.99705964 61.80287344 2.49511719 57.54858398 C1.84939608 51.97377558 1.53838454 46.38233145 1.2109375 40.78125 C1.14339264 39.64216187 1.07584778 38.50307373 1.0062561 37.32946777 C0.86553026 34.93944622 0.72609546 32.54934834 0.58789062 30.15917969 C0.37403267 26.48337354 0.15198806 22.80811655 -0.0703125 19.1328125 C-0.20622955 16.80732086 -0.34166366 14.48180093 -0.4765625 12.15625 C-0.54420807 11.05220825 -0.61185364 9.9481665 -0.68154907 8.81066895 C-0.73845917 7.7987146 -0.79536926 6.78676025 -0.85400391 5.74414062 C-0.90650299 4.84973267 -0.95900208 3.95532471 -1.01309204 3.03381348 C-1 1 -1 1 0 0 Z " fill="#FEFEFE" transform="translate(796,57)"/>
<path d="M0 0 C2.475 0.495 2.475 0.495 5 1 C5.06469482 1.95361923 5.12938965 2.90723846 5.19604492 3.88975525 C6.04301707 16.36515946 6.89619946 28.84013655 7.75161743 41.31496429 C7.91663628 43.72168173 8.08157418 46.12840472 8.24642944 48.53513336 C10.94507029 87.92371658 13.72743115 127.30608043 16.5479126 166.68612099 C17.09416283 174.31318529 17.63965661 181.94030359 18.18505859 189.56742859 C18.55172337 194.69412478 18.91843097 199.8208179 19.28515625 204.94750977 C19.3762542 206.22111009 19.46735214 207.4947104 19.56121063 208.80690467 C20.66810458 224.2798082 21.77856481 239.75244844 22.8939662 255.22474104 C23.60774319 265.12914002 24.31797682 275.03378932 25.0256505 284.93862623 C25.44130144 290.75401227 25.85871602 296.56925903 26.28056335 302.38419914 C26.67255142 307.78764492 27.05989801 313.19140359 27.44373512 318.59543431 C27.58397598 320.55827114 27.7258983 322.52098875 27.86971092 324.48356712 C28.64039831 335.01419892 29.21251698 345.43458407 29 356 C27.68 356 26.36 356 25 356 C23.30738312 339.83215256 21.91607166 323.66539817 20.97036362 307.43666267 C18.69910852 268.78347011 15.80412312 230.16763791 13.05049282 191.54665315 C12.44414749 183.03959927 11.84067395 174.53234346 11.23787248 166.02503783 C10.57903826 156.72795894 9.91818208 147.43102482 9.25642776 138.13415337 C8.97747079 134.21458043 8.6992272 130.29495784 8.42158127 126.37529182 C8.09650258 121.78719415 7.76965187 117.19922603 7.4414463 112.61135101 C7.3219121 110.93646284 7.2029801 109.26153156 7.08471107 107.58655357 C6.5278592 99.70513268 5.92958409 91.84811593 5 84 C4.86512373 82.33999515 4.74289265 80.67882355 4.64282227 79.01635742 C4.58922546 78.14548996 4.53562866 77.2746225 4.48040771 76.37736511 C4.42628723 75.46263931 4.37216675 74.54791351 4.31640625 73.60546875 C4.25656555 72.6275386 4.19672485 71.64960846 4.1350708 70.64204407 C4.00788873 68.56203667 3.88163823 66.48197214 3.7562561 64.40185547 C3.43068273 59.00069121 3.09881533 53.59991791 2.765625 48.19921875 C2.66765373 46.61021255 2.66765373 46.61021255 2.56770325 44.98910522 C1.97144798 35.39489659 1.30080106 25.80749622 0.55883789 16.22338867 C0.14907269 10.79499224 -0.084254 5.44410484 0 0 Z " fill="#FEFEFE" transform="translate(853,101)"/>
<path d="M0 0 C1.32 0 2.64 0 4 0 C4.79697781 3.62706567 5.23401003 7.15473278 5.49786472 10.85759735 C5.58345727 12.03692321 5.66904981 13.21624907 5.75723606 14.43131208 C5.84770598 15.72302084 5.9381759 17.0147296 6.03138733 18.34558105 C6.13097485 19.73483328 6.23084112 21.12406555 6.33096212 22.51327944 C6.60523617 26.33041406 6.87549799 30.14782378 7.14509737 33.96529102 C7.43658613 38.08290019 7.73175663 42.20024566 8.02644348 46.31762695 C8.60326896 54.38571136 9.17657701 62.45404202 9.74857552 70.52246994 C10.21375997 77.08362202 10.6800936 83.64469145 11.14724541 90.20570374 C11.21371859 91.13934499 11.28019177 92.07298624 11.34867929 93.03491965 C11.4837247 94.93166355 11.61877117 96.82840737 11.75381868 98.72515112 C13.02078217 116.5220342 14.28359192 134.31921024 15.54513132 152.1164785 C16.69835801 168.38392715 17.85669025 184.65100748 19.0174653 200.9179191 C20.20977523 217.62738521 21.39867334 234.33709086 22.58387941 251.0470624 C23.24913694 260.42556167 23.91572248 269.80396191 24.58586311 279.18211365 C25.15664098 287.17030645 25.72417434 295.15872181 26.28758819 303.14743751 C26.57490065 307.22003748 26.86365703 311.29252078 27.15644836 315.36473083 C27.42499714 319.10032529 27.68922407 322.83620064 27.95016008 326.57233435 C28.08922415 328.54802029 28.23275855 330.52339006 28.37650734 332.49874067 C28.91909521 340.34605005 29.10692536 348.13462947 29 356 C27.68 356 26.36 356 25 356 C23.27086313 340.18015825 21.89396212 324.36149693 20.97036362 308.4743824 C19.48686361 283.16821323 17.69011989 257.88342922 15.8984375 232.59765625 C15.82795802 231.60297254 15.75747855 230.60828883 15.68486333 229.58346319 C14.80972238 217.23764732 13.93070921 204.89210853 13.05049282 192.54665363 C12.44414757 184.03959958 11.84067396 175.53234362 11.23787248 167.02503783 C10.57903826 157.72795894 9.91818208 148.43102482 9.25642776 139.13415337 C8.97747079 135.21458043 8.6992272 131.29495784 8.42158127 127.37529182 C8.09650258 122.78719415 7.76965187 118.19922603 7.4414463 113.61135101 C7.3219121 111.93646284 7.2029801 110.26153156 7.08471107 108.58655357 C6.5278592 100.70513268 5.92958409 92.84811593 5 85 C4.86512373 83.33999515 4.74289265 81.67882355 4.64282227 80.01635742 C4.58922546 79.14548492 4.53562866 78.27461243 4.48040771 77.37734985 C4.42628723 76.46262909 4.37216675 75.54790833 4.31640625 74.60546875 C4.2266452 73.13864151 4.2266452 73.13864151 4.1350708 71.6421814 C3.94236862 68.49073032 3.75245813 65.33911755 3.5625 62.1875 C3.29862057 57.8566627 3.03273729 53.52595156 2.765625 49.1953125 C2.70031082 48.13576859 2.63499664 47.07622467 2.56770325 45.98457336 C1.97332783 36.42103244 1.30417151 26.86431855 0.55883789 17.3112793 C0.12021228 11.51943816 -0.07809253 5.80888255 0 0 Z " fill="#FEFEFE" transform="translate(823,80)"/>
<path d="M0 0 C2.4024489 -0.00216415 4.80442043 -0.02030487 7.20678711 -0.03930664 C22.84595071 -0.09858579 37.93611974 1.45682564 53.18920898 4.99780273 C54.35419922 5.26496094 55.51918945 5.53211914 56.71948242 5.80737305 C69.58146273 8.82083339 81.43251649 13.0495861 93.56420898 18.24780273 C94.55324219 18.67158203 95.54227539 19.09536133 96.5612793 19.53198242 C101.54908219 21.72087434 106.09880516 23.97036622 110.50170898 27.18530273 C110.17170898 28.83530273 109.84170898 30.48530273 109.50170898 32.18530273 C104.27862726 31.66829718 100.4251683 30.41817927 95.75170898 28.06030273 C78.12672335 19.49717808 59.42773629 13.73731148 40.12670898 10.43530273 C39.45051514 10.31960937 38.77432129 10.20391602 38.07763672 10.0847168 C12.40417416 6.03506119 -15.16754908 6.57455484 -40.49829102 12.18530273 C-41.85349854 12.46615723 -41.85349854 12.46615723 -43.23608398 12.75268555 C-60.51049488 16.33438077 -76.64887287 21.95638338 -92.39672852 29.90014648 C-95.41374409 31.15027007 -97.28275449 31.48036133 -100.49829102 31.18530273 C-100.82829102 29.53530273 -101.15829102 27.88530273 -101.49829102 26.18530273 C-70.728128 8.55571331 -35.37901264 -0.0035489 0 0 Z " fill="#46445C" transform="translate(638.498291015625,152.814697265625)"/>
<path d="M0 0 C0.82749756 0.00182281 1.65499512 0.00364563 2.50756836 0.00552368 C15.99299068 0.05531711 29.09921287 0.79363392 42.375 3.3125 C43.24833984 3.4681543 44.12167969 3.62380859 45.02148438 3.78417969 C66.82184098 7.76159362 87.95940107 15.66811345 107.375 26.3125 C107.375 27.9625 107.375 29.6125 107.375 31.3125 C103.82752265 32.57017983 102.42767109 32.3336389 98.87109375 30.90625 C97.51319274 30.2181838 96.16061262 29.51955207 94.8125 28.8125 C85.97844475 24.41681067 76.93828563 21.12048393 67.57421875 18.04248047 C65.72842641 17.42981183 63.8939177 16.78329253 62.0625 16.12890625 C51.19398655 12.41453397 39.69882873 11.00503309 28.375 9.3125 C27.30660889 9.13452881 26.23821777 8.95655762 25.13745117 8.77319336 C20.63801658 8.22226006 16.22774351 8.13150028 11.69921875 8.109375 C10.77518753 8.10367493 9.85115631 8.09797485 8.89912415 8.09210205 C6.94504933 8.08268755 4.9909589 8.07613225 3.03686523 8.07226562 C0.10956357 8.06265452 -2.81700617 8.03163668 -5.74414062 8 C-17.68930719 7.93292396 -28.9300902 8.90864099 -40.625 11.3125 C-42.16949124 11.61633887 -43.71408877 11.91963789 -45.25878906 12.22241211 C-61.75435494 15.50648546 -77.52558256 20.78500414 -92.49780273 28.4675293 C-99.24544273 31.87732385 -99.24544273 31.87732385 -103.625 31.3125 C-103.955 29.6625 -104.285 28.0125 -104.625 26.3125 C-98.47940168 22.23240455 -92.2491489 19.18838735 -85.4375 16.375 C-84.38884766 15.9411499 -83.34019531 15.5072998 -82.25976562 15.06030273 C-55.90397457 4.40241164 -28.33849719 -0.13061359 0 0 Z " fill="#46445C" transform="translate(641.625,106.6875)"/>
<path d="M0 0 C1.16015625 0.38212646 1.16015625 0.38212646 2.34375 0.77197266 C26.46746005 8.78808047 50.55294375 20.4145226 70 37 C69.67 38.65 69.34 40.3 69 42 C64.84033329 42.53921606 62.74237924 41.44870016 59.44799805 38.95263672 C58.60748901 38.29545654 58.60748901 38.29545654 57.75 37.625 C39.30780437 23.88259765 18.72975015 14.30788071 -3 7 C-3.67981934 6.76684082 -4.35963867 6.53368164 -5.06005859 6.29345703 C-36.6005278 -4.27698832 -74.35832211 -6.97180795 -106.875 -0.125 C-107.73270996 0.05135986 -108.59041992 0.22771973 -109.47412109 0.40942383 C-121.05119857 2.29637016 -121.05119857 2.29637016 -132 6 C-133.99960012 6.039992 -136.00047242 6.04346799 -138 6 C-138.33 4.35 -138.66 2.7 -139 1 C-105.20765842 -23.31311943 -36.65471217 -12.46167962 0 0 Z " fill="#47455D" transform="translate(390,186)"/>
<path d="M0 0 C0.99 0.33 1.98 0.66 3 1 C2.36052942 18.67094639 1.21821541 36.29432575 -0.04589534 53.92950654 C-0.32768101 57.87052539 -0.60576566 61.81180582 -0.88435364 65.75305176 C-1.4280467 73.4367053 -1.97505858 81.12011896 -2.52327025 88.80345128 C-3.16268069 97.76664461 -3.79878839 106.73007145 -4.43480486 115.69350614 C-5.56965265 131.68534236 -6.70755543 147.67695971 -7.84716797 163.66845703 C-8.95146227 179.16438043 -10.05340688 194.66046865 -11.15283203 210.15673828 C-12.54501734 229.77935597 -13.9392572 249.40182659 -15.33520493 269.02417698 C-15.77914912 275.26539478 -16.2223624 281.50666425 -16.66532898 287.74795151 C-17.20473778 295.34750608 -17.74548979 302.94696375 -18.28791702 310.5463035 C-18.56437525 314.41982536 -18.84027475 318.29338477 -19.1146183 322.16705704 C-19.41222718 326.36890769 -19.71262856 330.57055407 -20.01330566 334.77218628 C-20.09920251 335.9909492 -20.18509936 337.20971212 -20.27359915 338.46540725 C-20.71969738 344.6640406 -21.26360257 350.82891761 -22 357 C-23.32 357 -24.64 357 -26 357 C-26.12210179 348.4027489 -25.75899354 339.91270939 -25.13356018 331.33981323 C-25.03904115 330.00175039 -24.94489569 328.66366112 -24.85108703 327.32554829 C-24.59456557 323.6816237 -24.33282432 320.03809071 -24.07017028 316.39460373 C-23.78689274 312.45191253 -23.50855806 308.50887194 -23.22961426 304.56587219 C-22.74615706 297.74129825 -22.25964621 290.91694762 -21.77105904 284.09273911 C-21.06328438 274.20667327 -20.36049413 264.32025789 -19.65893721 254.43374909 C-18.51858105 238.36510952 -17.37465448 222.29672628 -16.22827148 206.22851562 C-15.11828811 190.67033689 -14.00928286 175.11208921 -12.90209961 159.55371094 C-12.83396411 158.59626731 -12.76582862 157.63882369 -12.69562841 156.65236662 C-11.95055809 146.18205728 -11.20588244 135.71171992 -10.46166134 125.24135017 C-10.39609592 124.31892837 -10.33053049 123.39650656 -10.26297824 122.44613258 C-10.00073819 118.75667878 -9.73850201 115.0672247 -9.47631549 111.3777671 C-8.71133123 100.61314609 -7.94514321 89.84861241 -7.17672133 79.08423622 C-6.69417439 72.32411185 -6.21253922 65.56392294 -5.73159618 58.80368428 C-5.45474137 54.91280639 -5.1774236 51.02196294 -4.89883995 47.13120842 C-4.64359716 43.56627585 -4.38957602 40.00125846 -4.1365938 36.43616477 C-3.99646847 34.46492489 -3.85523597 32.49376381 -3.71397889 30.5226047 C-3.32798146 25.05574437 -2.96347628 19.59224611 -2.71125603 14.11743546 C-2.67122048 13.26067691 -2.63118494 12.40391836 -2.5899362 11.52119744 C-2.52342111 10.00102403 -2.46523535 8.48044875 -2.4178043 6.95956028 C-2.2175449 2.2175449 -2.2175449 2.2175449 0 0 Z " fill="#FEFEFE" transform="translate(139,84)"/>
<path d="M0 0 C0.94810547 0.18191895 1.89621094 0.36383789 2.87304688 0.55126953 C30.58764239 6.02279959 57.7294951 18.05467895 81 34 C81.60005859 34.40524902 82.20011719 34.81049805 82.81835938 35.22802734 C92.69281249 41.96085375 92.69281249 41.96085375 93.81640625 45.76171875 C93.87699219 46.50035156 93.93757812 47.23898437 94 48 C91.98046875 48.83203125 91.98046875 48.83203125 89 49 C86.19825861 47.56126794 83.79678547 45.61158382 81.3125 43.6875 C57.86051208 26.38610382 29.58668855 13.80375172 1 8 C0.1234375 7.81663086 -0.753125 7.63326172 -1.65625 7.44433594 C-16.93831873 4.37650217 -31.96292123 3.60313422 -47.5 3.5625 C-48.37702576 3.55641724 -49.25405151 3.55033447 -50.15765381 3.54406738 C-66.62079912 3.46930672 -82.35816066 5.53867119 -98.3125 9.625 C-108.68114556 12.21909152 -108.68114556 12.21909152 -114 13 C-114.33 11.02 -114.66 9.04 -115 7 C-106.9345758 2.54653944 -97.92871608 0.94356668 -89 -1 C-88.22865723 -1.17096191 -87.45731445 -1.34192383 -86.66259766 -1.51806641 C-58.88647508 -7.35705485 -27.63891246 -5.46402801 0 0 Z " fill="#46445C" transform="translate(366,272)"/>
<path d="M0 0 C0.99 0.33 1.98 0.66 3 1 C2.33787434 18.29176261 1.19013398 35.54042403 -0.04589534 52.79878187 C-0.32742328 56.73849227 -0.60566669 60.67843497 -0.88435364 64.61834717 C-1.42834344 72.30178355 -1.97527946 79.98500738 -2.52327025 87.66815934 C-3.16245031 96.63138204 -3.79867292 105.59481397 -4.43480486 114.55825344 C-5.5699567 130.5516951 -6.70780033 146.5449441 -7.84716797 162.53808594 C-8.95111303 178.03403397 -10.05306052 193.53012238 -11.15283203 209.02636719 C-11.25464119 210.46089612 -11.25464119 210.46089612 -11.3585071 211.92440543 C-11.42626645 212.87916121 -11.49402581 213.833917 -11.56383848 214.81760478 C-12.81940609 232.50879004 -14.07687433 250.19983978 -15.33520493 267.89082871 C-15.77901861 274.1310734 -16.22226532 280.37135821 -16.66532898 286.61165619 C-17.20501333 294.21228457 -17.74578983 301.81283438 -18.28791702 309.41328892 C-18.56419737 313.28694013 -18.84003278 317.16062157 -19.1146183 321.03439331 C-19.41261041 325.23810937 -19.71284855 329.44166204 -20.01330566 333.64520264 C-20.09920251 334.86173484 -20.18509936 336.07826704 -20.27359915 337.33166385 C-20.74524763 343.90041612 -21.29842664 350.45164723 -22 357 C-23.32 357 -24.64 357 -26 357 C-26.11587918 348.02569881 -25.78763499 339.16188865 -25.13356018 330.21282959 C-25.0390116 328.87319306 -24.94486737 327.53352794 -24.85108703 326.1938374 C-24.59487831 322.55021811 -24.33302419 318.90702416 -24.07017028 315.26387906 C-23.78663513 311.31987939 -23.50845838 307.3755012 -23.22961426 303.4311676 C-22.74639613 296.60604606 -22.25986309 289.78116746 -21.77105904 282.95644379 C-21.06304391 273.07074238 -20.36034352 263.18466865 -19.65893721 253.2984964 C-18.51888557 237.23146217 -17.37489896 221.16471072 -16.22827148 205.09814453 C-15.11793937 189.53999051 -14.00893456 173.98174308 -12.90209961 158.42333984 C-12.83396411 157.46559354 -12.76582862 156.50784724 -12.69562841 155.52107832 C-11.95066083 145.04892673 -11.2060506 134.57674975 -10.46166134 124.10455704 C-10.26374254 121.32027161 -10.06582344 118.53598621 -9.86790366 115.75170085 C-9.73736781 113.91530583 -9.60683838 112.07891035 -9.47631549 110.2425144 C-8.7111463 99.4772343 -7.94490888 88.71203142 -7.17672133 77.94696626 C-6.69442774 71.18824238 -6.21277059 64.42947336 -5.73159618 57.6706697 C-5.40183586 53.0393722 -5.0712261 48.40813649 -4.73990346 43.77695051 C-4.53811508 40.95312124 -4.33725265 38.1292266 -4.1365938 35.30531687 C-3.99654056 33.33887116 -3.85527353 31.37251201 -3.71397889 29.40615511 C-3.33397739 24.0551728 -2.9697231 18.70703067 -2.71125603 13.34867096 C-2.67122048 12.53663436 -2.63118494 11.72459776 -2.5899362 10.887954 C-2.49562078 8.86059894 -2.41495214 6.83262044 -2.33584499 4.80461502 C-2 2 -2 2 0 0 Z " fill="#FEFEFE" transform="translate(109,98)"/>
<path d="M0 0 C1.32 0 2.64 0 4 0 C2.76544153 20.99182581 1.41498994 41.97189286 -0.07741797 62.94712675 C-0.34516523 66.71564075 -0.61092582 70.48429503 -0.87696838 74.25292969 C-1.39436078 81.57785133 -1.91348755 88.90264899 -2.43325693 96.22740231 C-3.04040286 104.78446661 -3.64574808 113.34165804 -4.25104373 121.89885338 C-5.33112045 137.16728472 -6.41277787 152.43560364 -7.49536133 167.70385742 C-8.54308369 182.48046725 -9.58967065 197.25715693 -10.63500977 212.03393555 C-10.69963282 212.94743646 -10.76425587 213.86093737 -10.8308372 214.80212013 C-10.89535519 215.71413811 -10.95987318 216.62615609 -11.02634627 217.56581098 C-12.22242467 234.47332879 -13.4194903 251.38077658 -14.61705546 268.28818915 C-15.03861387 274.24009798 -15.45989386 280.19202648 -15.88109016 286.14396095 C-16.39385862 293.38959278 -16.90720632 300.63518332 -17.42126042 307.88072405 C-17.68302631 311.57042454 -17.94456491 315.26014074 -18.20545197 318.94990349 C-18.48881567 322.95740875 -18.77335206 326.96482992 -19.05799866 330.97224426 C-19.13932244 332.12486513 -19.22064622 333.27748601 -19.30443436 334.46503478 C-19.81592037 341.64820776 -20.38535562 348.82491949 -21 356 C-22.32 356 -23.64 356 -25 356 C-25.10997981 345.69174959 -24.84551951 335.50097132 -24.09559631 325.21290588 C-23.99683958 323.80153547 -23.89857403 322.39013062 -23.80074877 320.97869533 C-23.53406415 317.1512752 -23.26048148 313.32437653 -22.98562729 309.49753559 C-22.68909503 305.35148823 -22.39911401 301.20498165 -22.10826111 297.05853271 C-21.53914754 288.96002018 -20.9640221 280.86194561 -20.38671643 272.76401336 C-19.9179329 266.1865552 -19.45144331 259.60893799 -18.98657036 253.03120232 C-18.88709044 251.62361597 -18.88709044 251.62361597 -18.78560082 250.18759353 C-18.65087219 248.28108126 -18.51614995 246.37456853 -18.38143402 244.46805536 C-17.12102969 226.6341625 -15.8538964 208.80075277 -14.58432101 190.96751075 C-13.49443805 175.65633747 -12.40990449 160.34479304 -11.3293457 145.03295898 C-10.07346935 127.23689387 -8.8146611 109.44104055 -7.55087942 91.64553493 C-7.4163323 89.7508772 -7.28178762 87.85621929 -7.14724541 85.9615612 C-7.08104747 85.02938834 -7.01484954 84.09721547 -6.94664561 83.13679494 C-6.47960179 76.5573465 -6.01463438 69.97775319 -5.55043221 63.39810371 C-4.98573531 55.39505171 -4.41772809 47.39224291 -3.84542639 39.389731 C-3.55336377 35.30469353 -3.26280617 31.21956342 -2.97621536 27.13413811 C-2.71428597 23.40089642 -2.4481476 19.66798045 -2.1785261 15.93528663 C-2.03500404 13.93280153 -1.89606074 11.92998991 -1.75723606 9.92717367 C-1.67164352 8.75417871 -1.58605098 7.58118374 -1.49786472 6.37264347 C-1.42533814 5.35189482 -1.35281156 4.33114617 -1.2780872 3.27946573 C-1 1 -1 1 0 0 Z " fill="#FEFEFE" transform="translate(166,78)"/>
<path d="M0 0 C0.76006348 0.1232666 1.52012695 0.2465332 2.30322266 0.37353516 C38.11809643 6.18576864 71.65084884 22.79380084 100 45 C99.67 46.65 99.34 48.3 99 50 C95.69129775 50.37626036 94.26143193 50.1670479 91.4140625 48.34765625 C90.49367188 47.59355469 89.57328125 46.83945312 88.625 46.0625 C62.61371481 25.55109314 30.40462852 14.264556 -1.6875 7.6875 C-2.46416016 7.52797852 -3.24082031 7.36845703 -4.04101562 7.20410156 C-16.08230067 4.87103821 -28.15442422 4.75878535 -40.375 4.75 C-41.22004089 4.74932526 -42.06508179 4.74865051 -42.93572998 4.74795532 C-61.59058179 4.77158919 -78.65969679 7.06310664 -96.6796875 11.9140625 C-100.45131518 12.90238562 -104.11646752 13.62482845 -108 14 C-109 13 -109 13 -109.0625 10.4375 C-109.041875 9.633125 -109.02125 8.82875 -109 8 C-104.1242408 5.77108151 -99.36415281 4.17416562 -94.125 3 C-93.39104004 2.83266357 -92.65708008 2.66532715 -91.90087891 2.49291992 C-61.79752455 -4.2391215 -30.41175097 -5.50110171 0 0 Z " fill="#46445C" transform="translate(360,317)"/>
<path d="M0 0 C0.99 0 1.98 0 3 0 C3.11083807 10.31114995 2.84409568 20.50314014 2.08886719 30.79382324 C1.98939238 32.20590575 1.89041432 33.61802332 1.79188156 35.03017187 C1.52327885 38.85952592 1.24775432 42.68835341 0.97096825 46.51712346 C0.67236435 50.66519164 0.38036489 54.81372567 0.08752441 58.96220398 C-0.41953491 66.13276785 -0.93068932 73.30303011 -1.44470215 80.47309875 C-2.18785358 90.83955264 -2.92470958 101.20644662 -3.66007662 111.57345527 C-4.85360478 128.39710496 -6.05215647 145.22039278 -7.25390625 162.04345703 C-8.42062466 178.3762765 -9.58495296 194.70926348 -10.74609375 211.04248047 C-10.81778164 212.05086839 -10.88946954 213.05925632 -10.96332979 214.09820145 C-11.32298638 219.1574687 -11.68259626 224.21673926 -12.04218292 229.27601147 C-15.02088195 271.18452454 -18.00775013 313.09245241 -21 355 C-22.65 355.33 -24.3 355.66 -26 356 C-24.76503304 335.00332691 -23.41449065 314.01835762 -21.92258203 293.03821421 C-21.65484096 289.26767384 -21.38907809 285.49699387 -21.12303162 281.72633362 C-20.60564788 274.3977364 -20.08652531 267.06926343 -19.56674307 259.74083598 C-18.95964777 251.18051843 -18.35428693 242.62007846 -17.74895627 234.05963598 C-16.66890568 218.78672915 -15.58722578 203.51393816 -14.50463867 188.24121094 C-13.45673515 173.4577779 -12.41016754 158.67425103 -11.36499023 143.890625 C-10.22135574 127.71438874 -9.07703163 111.53820155 -7.93147284 95.36210144 C-7.80931656 93.63716182 -7.6871604 91.91222219 -7.56500435 90.18728256 C-7.50492461 89.3389267 -7.44484487 88.49057083 -7.38294454 87.61650721 C-6.96123173 81.66113379 -6.53998659 75.70572741 -6.11890984 69.75030899 C-5.60640275 62.50206814 -5.09308014 55.25388556 -4.57873958 48.00577457 C-4.31679436 44.31418524 -4.05519044 40.62257261 -3.79454803 36.93089104 C-3.51156758 32.92300858 -3.22686535 28.91525024 -2.94200134 24.90750122 C-2.86067756 23.75196751 -2.77935378 22.59643379 -2.69556564 21.40588391 C-2.32328556 16.1872594 -1.93430823 10.9699291 -1.50362492 5.75578117 C-1.43091407 4.86291527 -1.35820322 3.97004936 -1.28328902 3.05012691 C-1 1 -1 1 0 0 Z " fill="#FEFEFE" transform="translate(194,64)"/>
<path d="M0 0 C1.56218711 0.21453045 3.12471215 0.42660921 4.6875 0.63671875 C24.59506099 3.54392674 59.34875407 10.34875407 74 25 C73.625 27.625 73.625 27.625 73 30 C67.30816996 29.48928963 63.13053777 27.88024269 58.0625 25.3125 C29.54558687 11.42524368 -1.09985271 5.54573529 -32.6875 5.6875 C-33.92867081 5.68973572 -33.92867081 5.68973572 -35.19491577 5.6920166 C-48.32838027 5.73440047 -61.08986794 6.42134072 -74 9 C-75.06758545 9.20085205 -75.06758545 9.20085205 -76.15673828 9.40576172 C-94.34672202 12.89976325 -112.20724649 19.12778223 -128.734375 27.43359375 C-133.63563126 29.78455518 -133.63563126 29.78455518 -136 30 C-136.66 29.34 -137.32 28.68 -138 28 C-137.87207031 25.52685547 -137.87207031 25.52685547 -137 23 C-135.29199219 21.62548828 -135.29199219 21.62548828 -133.046875 20.5703125 C-132.21091797 20.17094482 -131.37496094 19.77157715 -130.51367188 19.36010742 C-129.60166016 18.95252197 -128.68964844 18.54493652 -127.75 18.125 C-126.80705078 17.69227783 -125.86410156 17.25955566 -124.89257812 16.8137207 C-115.16159598 12.45175138 -105.23726113 8.9627066 -95 6 C-94.17628906 5.75910645 -93.35257813 5.51821289 -92.50390625 5.27001953 C-63.25925564 -3.05176987 -29.98527134 -5.16883206 0 0 Z " fill="#45435B" transform="translate(675,333)"/>
<path d="M0 0 C0.98945618 -0.00012085 1.97891235 -0.0002417 2.99835205 -0.00036621 C24.320238 0.03664871 44.78872396 2.05198515 65.25 8.375 C66.22066406 8.63539063 67.19132813 8.89578125 68.19140625 9.1640625 C93.38351271 16.19289012 116.75305364 28.70698926 137.66625977 44.22094727 C139.16520097 45.31320795 140.70680842 46.34620561 142.25 47.375 C141.92 49.025 141.59 50.675 141.25 52.375 C139.65234375 53.16796875 139.65234375 53.16796875 137.25 53.375 C134.95054947 51.89612569 132.92771122 50.39865346 130.8125 48.6875 C85.98547926 14.36550954 26.29297693 2.11562076 -29.0234375 9.30859375 C-38.94413042 10.7596585 -48.63302377 13.24777634 -58.30004883 15.87182617 C-60.8486521 16.39526128 -63.15558595 16.46458252 -65.75 16.375 C-66.08 14.725 -66.41 13.075 -66.75 11.375 C-63.31628644 9.14366817 -60.29614718 7.79729671 -56.3203125 6.83984375 C-55.27617187 6.58783203 -54.23203125 6.33582031 -53.15625 6.07617188 C-52.0734375 5.82416016 -50.990625 5.57214844 -49.875 5.3125 C-48.83085937 5.05662109 -47.78671875 4.80074219 -46.7109375 4.53710938 C-31.09023943 0.83195599 -15.97727154 -0.02998925 0 0 Z " fill="#46445C" transform="translate(317.75,221.625)"/>
<path d="M0 0 C0.70261963 0.26377441 1.40523926 0.52754883 2.12915039 0.79931641 C3.78823074 1.44869695 5.40058803 2.21506431 7 3 C8.3125 6.125 8.3125 6.125 9 9 C11.46518517 10.23259258 13.19193393 10.0763052 15.9453125 10.13671875 C22.89090146 10.72023887 27.33461347 13.80618852 32.875 17.8125 C33.78507813 18.44220703 34.69515625 19.07191406 35.6328125 19.72070312 C39.87167806 22.67365552 44.02384065 25.69762497 48 29 C47.67 30.65 47.34 32.3 47 34 C43.69129775 34.37626036 42.26143193 34.1670479 39.4140625 32.34765625 C38.49367188 31.59355469 37.57328125 30.83945313 36.625 30.0625 C-5.71626993 -3.32604687 -65.2211369 -16.5100083 -118.2109375 -10.28125 C-128.86944903 -8.75722316 -139.36572907 -6.41759123 -149.72460938 -3.48754883 C-153.83669743 -2.35304372 -156.79913897 -1.63051931 -161 -3 C-161 -4.65 -161 -6.3 -161 -8 C-111.40021355 -30.90245173 -48.54983752 -19.23721777 0 0 Z " fill="#45445C" transform="translate(412,148)"/>
<path d="M0 0 C2.49626012 0.01071879 4.99179858 0.00003186 7.48803711 -0.01269531 C28.53731164 -0.03107432 48.92665205 3.10634276 69.06420898 9.26074219 C70.15016357 9.56298706 70.15016357 9.56298706 71.25805664 9.87133789 C78.30259145 11.87122742 84.95747826 14.58132649 91.68920898 17.44824219 C92.7887793 17.91166016 93.88834961 18.37507813 95.02124023 18.85253906 C97.70419781 19.98404726 100.38509042 21.1201812 103.06420898 22.26074219 C103.06420898 24.90074219 103.06420898 27.54074219 103.06420898 30.26074219 C102.42733154 29.99447021 101.7904541 29.72819824 101.13427734 29.45385742 C78.13535188 19.89685066 55.82669979 12.4903329 31.06420898 9.26074219 C30.31107422 9.15834229 29.55793945 9.05594238 28.78198242 8.95043945 C1.14994188 5.66330167 -27.35335759 7.82135067 -53.96582031 15.77319336 C-57.97981697 16.94283178 -60.89930543 17.55846832 -64.93579102 16.26074219 C-65.12329102 13.88574219 -65.12329102 13.88574219 -64.93579102 11.26074219 C-60.42758694 8.2552728 -55.42985413 7.4796564 -50.19824219 6.22900391 C-48.29757139 5.77257639 -46.4007844 5.30007022 -44.50415039 4.82714844 C-29.59947268 1.22653682 -15.26600701 -0.07763642 0 0 Z " fill="#47455D" transform="translate(315.935791015625,82.7392578125)"/>
<path d="M0 0 C0.99 0 1.98 0 3 0 C3 31.02 3 62.04 3 94 C2.01 94 1.02 94 0 94 C0 62.98 0 31.96 0 0 Z " fill="#C9CBD4" transform="translate(748,224)"/>
<path d="M0 0 C13.06976744 8.06976744 13.06976744 8.06976744 17 12 C17 13.32 17 14.64 17 16 C14.89453125 16.74609375 14.89453125 16.74609375 12 17 C7.69749017 14.71648475 3.97549739 11.83964099 0 9 C0 18.24 0 27.48 0 37 C-0.33 37 -0.66 37 -1 37 C-1.02493556 33.01644868 -1.04297028 29.03292833 -1.05493164 25.04931641 C-1.06236421 23.03676759 -1.07507829 21.02424051 -1.08789062 19.01171875 C-1.10405483 12.57836629 -1.02960975 6.3560161 0 0 Z " fill="#484A67" transform="translate(443,119)"/>
<path d="M0 0 C1.53333984 0.01353516 1.53333984 0.01353516 3.09765625 0.02734375 C5.60701522 0.0507957 8.11588336 0.08361645 10.625 0.125 C10.625 0.455 10.625 0.785 10.625 1.125 C9.47902344 1.18558594 8.33304688 1.24617187 7.15234375 1.30859375 C5.62238703 1.39306989 4.09243959 1.47771427 2.5625 1.5625 C1.43424805 1.62147461 1.43424805 1.62147461 0.28320312 1.68164062 C-4.32198741 1.94080719 -8.81866724 2.4049421 -13.375 3.125 C-12.40167739 4.31841752 -12.40167739 4.31841752 -10.60913086 4.23852539 C-9.86026611 4.23328857 -9.11140137 4.22805176 -8.33984375 4.22265625 C-7.53095703 4.21943359 -6.72207031 4.21621094 -5.88867188 4.21289062 C-4.6134668 4.20032227 -4.6134668 4.20032227 -3.3125 4.1875 C-2.45849609 4.18298828 -1.60449219 4.17847656 -0.72460938 4.17382812 C1.39195663 4.16200373 3.50848685 4.14406769 5.625 4.125 C5.625 4.455 5.625 4.785 5.625 5.125 C4.52542969 5.16238281 3.42585937 5.19976562 2.29296875 5.23828125 C-5.50106064 5.5640256 -12.70238021 6.05187985 -20.17578125 8.50390625 C-22.375 9.125 -22.375 9.125 -26.375 9.125 C-26.10546875 7.2265625 -26.10546875 7.2265625 -25.375 5.125 C-23.73828125 4.1484375 -23.73828125 4.1484375 -21.6875 3.5 C-21.02363281 3.28085938 -20.35976563 3.06171875 -19.67578125 2.8359375 C-18.91652344 2.60132813 -18.15726563 2.36671875 -17.375 2.125 C-16.10849609 1.59132812 -16.10849609 1.59132812 -14.81640625 1.046875 C-9.86531147 -0.27941146 -5.09933445 -0.08553722 0 0 Z " fill="#CBCFDB" transform="translate(633.375,213.875)"/>
<path d="M0 0 C-0.99 0 -1.98 0 -3 0 C-3.66 1.65 -4.32 3.3 -5 5 C-6.32 5 -7.64 5 -9 5 C-8.75 3.125 -8.75 3.125 -8 1 C-5.08518252 -1.1107299 -3.34823603 -1.19579858 0 0 Z " fill="#BCC1D0" transform="translate(616,218)"/>
<path d="M0 0 C3.625 -0.1875 3.625 -0.1875 7 0 C7 0.66 7 1.32 7 2 C2.545 2.495 2.545 2.495 -2 3 C-1.34 2.01 -0.68 1.02 0 0 Z " fill="#FBFCFC" transform="translate(620,216)"/>
</svg>
